<mxfile host="app.diagrams.net" modified="2023-10-17T09:01:22.066Z" agent="Mozilla/5.0 (X11; Linux x86_64) AppleWebKit/537.36 (KHTML, like Gecko) Chrome/118.0.0.0 Safari/537.36" etag="zpIs9T00Dl-Y7im_6fjy" version="21.6.5" type="github">
  <diagram id="yPxyJZ8AM_hMuL3Unpa9" name="simple gitflow">
    <mxGraphModel dx="3174" dy="1131" grid="1" gridSize="10" guides="1" tooltips="1" connect="1" arrows="1" fold="1" page="1" pageScale="1" pageWidth="1100" pageHeight="850" math="0" shadow="0">
      <root>
        <mxCell id="0" />
        <mxCell id="1" parent="0" />
        <mxCell id="9hBKPDzoitwpIBdzFDQ7-23" value="" style="edgeStyle=orthogonalEdgeStyle;rounded=0;html=1;jettySize=auto;orthogonalLoop=1;plain-blue;endArrow=none;endFill=0;strokeWidth=4;strokeColor=#000000;" parent="1" source="9hBKPDzoitwpIBdzFDQ7-25" target="9hBKPDzoitwpIBdzFDQ7-26" edge="1">
          <mxGeometry x="304.5" y="180" as="geometry" />
        </mxCell>
        <mxCell id="9hBKPDzoitwpIBdzFDQ7-24" style="edgeStyle=orthogonalEdgeStyle;curved=1;rounded=0;html=1;exitX=1;exitY=0.5;exitPerimeter=0;entryX=0;entryY=0.5;entryPerimeter=0;endArrow=none;endFill=0;jettySize=auto;orthogonalLoop=1;strokeWidth=4;fontSize=15;" parent="1" source="9hBKPDzoitwpIBdzFDQ7-25" target="9hBKPDzoitwpIBdzFDQ7-30" edge="1">
          <mxGeometry relative="1" as="geometry" />
        </mxCell>
        <mxCell id="9hBKPDzoitwpIBdzFDQ7-25" value="" style="verticalLabelPosition=bottom;verticalAlign=top;html=1;strokeWidth=4;shape=mxgraph.flowchart.on-page_reference;fillColor=#dae8fc;strokeColor=#6c8ebf;" parent="1" vertex="1">
          <mxGeometry x="274.5" y="165" width="30" height="30" as="geometry" />
        </mxCell>
        <mxCell id="9hBKPDzoitwpIBdzFDQ7-41" value="" style="edgeStyle=orthogonalEdgeStyle;curved=1;rounded=0;orthogonalLoop=1;jettySize=auto;html=1;endArrow=none;endFill=0;strokeWidth=4;fontFamily=Courier New;fontSize=16;" parent="1" source="9hBKPDzoitwpIBdzFDQ7-26" target="9hBKPDzoitwpIBdzFDQ7-40" edge="1">
          <mxGeometry relative="1" as="geometry" />
        </mxCell>
        <mxCell id="9hBKPDzoitwpIBdzFDQ7-26" value="" style="verticalLabelPosition=bottom;verticalAlign=top;html=1;strokeWidth=4;shape=mxgraph.flowchart.on-page_reference;strokeColor=#6c8ebf;fillColor=#dae8fc;" parent="1" vertex="1">
          <mxGeometry x="547" y="165" width="30" height="30" as="geometry" />
        </mxCell>
        <mxCell id="9hBKPDzoitwpIBdzFDQ7-43" value="" style="edgeStyle=orthogonalEdgeStyle;curved=1;rounded=0;orthogonalLoop=1;jettySize=auto;html=1;endArrow=none;endFill=0;strokeWidth=4;fontFamily=Courier New;fontSize=16;entryX=0;entryY=0.5;entryDx=0;entryDy=0;entryPerimeter=0;" parent="1" source="9hBKPDzoitwpIBdzFDQ7-40" target="9hBKPDzoitwpIBdzFDQ7-55" edge="1">
          <mxGeometry relative="1" as="geometry">
            <mxPoint x="779" y="180" as="targetPoint" />
          </mxGeometry>
        </mxCell>
        <mxCell id="9hBKPDzoitwpIBdzFDQ7-40" value="" style="verticalLabelPosition=bottom;verticalAlign=top;html=1;strokeWidth=4;shape=mxgraph.flowchart.on-page_reference;strokeColor=#6c8ebf;fillColor=#dae8fc;" parent="1" vertex="1">
          <mxGeometry x="680" y="165" width="30" height="30" as="geometry" />
        </mxCell>
        <mxCell id="9hBKPDzoitwpIBdzFDQ7-55" value="" style="verticalLabelPosition=bottom;verticalAlign=top;html=1;strokeWidth=4;shape=mxgraph.flowchart.on-page_reference;strokeColor=#6c8ebf;fillColor=#dae8fc;" parent="1" vertex="1">
          <mxGeometry x="871.25" y="165" width="30" height="30" as="geometry" />
        </mxCell>
        <mxCell id="9hBKPDzoitwpIBdzFDQ7-27" value="" style="edgeStyle=orthogonalEdgeStyle;rounded=0;html=1;jettySize=auto;orthogonalLoop=1;strokeWidth=4;endArrow=none;endFill=0;" parent="1" target="9hBKPDzoitwpIBdzFDQ7-25" edge="1">
          <mxGeometry x="204.5" y="180" as="geometry">
            <mxPoint x="160" y="180" as="sourcePoint" />
          </mxGeometry>
        </mxCell>
        <mxCell id="9hBKPDzoitwpIBdzFDQ7-28" value="main" style="text;html=1;strokeColor=none;fillColor=none;align=center;verticalAlign=middle;whiteSpace=wrap;overflow=hidden;fontSize=14;fontStyle=1;fontFamily=Courier New;" parent="1" vertex="1">
          <mxGeometry x="80" y="170" width="50" height="20" as="geometry" />
        </mxCell>
        <mxCell id="9hBKPDzoitwpIBdzFDQ7-30" value="" style="verticalLabelPosition=bottom;verticalAlign=top;html=1;strokeWidth=4;shape=mxgraph.flowchart.on-page_reference;strokeColor=#d79b00;fillColor=#ffe6cc;" parent="1" vertex="1">
          <mxGeometry x="370" y="245" width="30" height="30" as="geometry" />
        </mxCell>
        <mxCell id="9hBKPDzoitwpIBdzFDQ7-35" value="JIRA-35--example-feature" style="text;html=1;strokeColor=none;fillColor=none;align=left;verticalAlign=middle;whiteSpace=wrap;overflow=hidden;fontSize=14;fontStyle=1;fontFamily=Courier New;" parent="1" vertex="1">
          <mxGeometry x="-333.87" y="305" width="240" height="20" as="geometry" />
        </mxCell>
        <mxCell id="9hBKPDzoitwpIBdzFDQ7-37" value="Репо сервиса" style="text;html=1;strokeColor=none;fillColor=none;align=left;verticalAlign=middle;whiteSpace=wrap;overflow=hidden;fontSize=14;fontStyle=0;fontColor=#009900;" parent="1" vertex="1">
          <mxGeometry x="90" y="90" width="132.25" height="20" as="geometry" />
        </mxCell>
        <mxCell id="9hBKPDzoitwpIBdzFDQ7-38" value="Your feature branch" style="text;html=1;strokeColor=none;fillColor=none;align=left;verticalAlign=middle;whiteSpace=wrap;overflow=hidden;fontSize=14;fontStyle=0;fontColor=#009900;" parent="1" vertex="1">
          <mxGeometry x="-310" y="220" width="202.25" height="20" as="geometry" />
        </mxCell>
        <mxCell id="9hBKPDzoitwpIBdzFDQ7-39" value="main-1" style="text;html=1;strokeColor=none;fillColor=none;align=center;verticalAlign=middle;whiteSpace=wrap;overflow=hidden;fontSize=14;" parent="1" vertex="1">
          <mxGeometry x="254.5" y="120" width="70" height="20" as="geometry" />
        </mxCell>
        <mxCell id="9hBKPDzoitwpIBdzFDQ7-44" value="test-2" style="text;html=1;strokeColor=none;fillColor=none;align=center;verticalAlign=middle;whiteSpace=wrap;overflow=hidden;fontSize=14;" parent="1" vertex="1">
          <mxGeometry x="350" y="210" width="70" height="20" as="geometry" />
        </mxCell>
        <mxCell id="7wTCHmgoBBdXC-oFBVKr-7" value="Репо автотестов" style="text;html=1;strokeColor=none;fillColor=none;align=left;verticalAlign=middle;whiteSpace=wrap;overflow=hidden;fontSize=14;fontStyle=0;fontColor=#009900;" vertex="1" parent="1">
          <mxGeometry x="90" y="460" width="132.25" height="20" as="geometry" />
        </mxCell>
        <mxCell id="7wTCHmgoBBdXC-oFBVKr-8" value="" style="edgeStyle=orthogonalEdgeStyle;rounded=0;html=1;jettySize=auto;orthogonalLoop=1;plain-blue;endArrow=none;endFill=0;strokeWidth=4;strokeColor=#000000;" edge="1" parent="1" source="7wTCHmgoBBdXC-oFBVKr-15" target="7wTCHmgoBBdXC-oFBVKr-12">
          <mxGeometry x="304.5" y="180" as="geometry" />
        </mxCell>
        <mxCell id="7wTCHmgoBBdXC-oFBVKr-10" value="" style="verticalLabelPosition=bottom;verticalAlign=top;html=1;strokeWidth=4;shape=mxgraph.flowchart.on-page_reference;fillColor=#d5e8d4;strokeColor=#82b366;" vertex="1" parent="1">
          <mxGeometry x="274.5" y="550" width="30" height="30" as="geometry" />
        </mxCell>
        <mxCell id="7wTCHmgoBBdXC-oFBVKr-11" value="" style="edgeStyle=orthogonalEdgeStyle;curved=1;rounded=0;orthogonalLoop=1;jettySize=auto;html=1;endArrow=none;endFill=0;strokeWidth=4;fontFamily=Courier New;fontSize=16;" edge="1" parent="1" source="7wTCHmgoBBdXC-oFBVKr-12" target="7wTCHmgoBBdXC-oFBVKr-15">
          <mxGeometry relative="1" as="geometry" />
        </mxCell>
        <mxCell id="7wTCHmgoBBdXC-oFBVKr-13" value="" style="edgeStyle=orthogonalEdgeStyle;curved=1;rounded=0;orthogonalLoop=1;jettySize=auto;html=1;endArrow=none;endFill=0;strokeWidth=4;fontFamily=Courier New;fontSize=16;" edge="1" parent="1" source="7wTCHmgoBBdXC-oFBVKr-12" target="7wTCHmgoBBdXC-oFBVKr-17">
          <mxGeometry relative="1" as="geometry" />
        </mxCell>
        <mxCell id="7wTCHmgoBBdXC-oFBVKr-16" value="" style="edgeStyle=orthogonalEdgeStyle;curved=1;rounded=0;orthogonalLoop=1;jettySize=auto;html=1;endArrow=none;endFill=0;strokeWidth=4;fontFamily=Courier New;fontSize=16;" edge="1" parent="1" source="7wTCHmgoBBdXC-oFBVKr-17" target="7wTCHmgoBBdXC-oFBVKr-18">
          <mxGeometry relative="1" as="geometry" />
        </mxCell>
        <mxCell id="7wTCHmgoBBdXC-oFBVKr-17" value="" style="verticalLabelPosition=bottom;verticalAlign=top;html=1;strokeWidth=4;shape=mxgraph.flowchart.on-page_reference;strokeColor=#82b366;fillColor=#d5e8d4;" vertex="1" parent="1">
          <mxGeometry x="620" y="550" width="30" height="30" as="geometry" />
        </mxCell>
        <mxCell id="7wTCHmgoBBdXC-oFBVKr-18" value="" style="verticalLabelPosition=bottom;verticalAlign=top;html=1;strokeWidth=4;shape=mxgraph.flowchart.on-page_reference;strokeColor=#82b366;fillColor=#d5e8d4;" vertex="1" parent="1">
          <mxGeometry x="871.25" y="550" width="30" height="30" as="geometry" />
        </mxCell>
        <mxCell id="7wTCHmgoBBdXC-oFBVKr-19" value="" style="edgeStyle=orthogonalEdgeStyle;rounded=0;html=1;jettySize=auto;orthogonalLoop=1;strokeWidth=4;endArrow=none;endFill=0;" edge="1" parent="1" target="7wTCHmgoBBdXC-oFBVKr-10">
          <mxGeometry x="204.5" y="180" as="geometry">
            <mxPoint x="160" y="565" as="sourcePoint" />
          </mxGeometry>
        </mxCell>
        <mxCell id="7wTCHmgoBBdXC-oFBVKr-24" value="main" style="text;html=1;strokeColor=none;fillColor=none;align=center;verticalAlign=middle;whiteSpace=wrap;overflow=hidden;fontSize=14;fontStyle=1;fontFamily=Courier New;" vertex="1" parent="1">
          <mxGeometry x="80" y="550" width="50" height="20" as="geometry" />
        </mxCell>
        <mxCell id="7wTCHmgoBBdXC-oFBVKr-25" value="test" style="text;html=1;strokeColor=none;fillColor=none;align=center;verticalAlign=middle;whiteSpace=wrap;overflow=hidden;fontSize=14;fontStyle=1;fontFamily=Courier New;" vertex="1" parent="1">
          <mxGeometry x="80" y="250" width="50" height="20" as="geometry" />
        </mxCell>
        <mxCell id="7wTCHmgoBBdXC-oFBVKr-26" value="" style="edgeStyle=orthogonalEdgeStyle;curved=1;rounded=0;orthogonalLoop=1;jettySize=auto;html=1;endArrow=none;endFill=0;strokeWidth=4;fontFamily=Courier New;fontSize=16;" edge="1" parent="1" source="7wTCHmgoBBdXC-oFBVKr-15" target="7wTCHmgoBBdXC-oFBVKr-12">
          <mxGeometry relative="1" as="geometry">
            <mxPoint x="550" y="565" as="sourcePoint" />
            <mxPoint x="779" y="565" as="targetPoint" />
          </mxGeometry>
        </mxCell>
        <mxCell id="7wTCHmgoBBdXC-oFBVKr-12" value="" style="verticalLabelPosition=bottom;verticalAlign=top;html=1;strokeWidth=4;shape=mxgraph.flowchart.on-page_reference;strokeColor=#82b366;fillColor=#d5e8d4;" vertex="1" parent="1">
          <mxGeometry x="560" y="550" width="30" height="30" as="geometry" />
        </mxCell>
        <mxCell id="7wTCHmgoBBdXC-oFBVKr-27" value="" style="edgeStyle=orthogonalEdgeStyle;rounded=0;html=1;jettySize=auto;orthogonalLoop=1;plain-blue;endArrow=none;endFill=0;strokeWidth=4;strokeColor=#000000;" edge="1" parent="1" source="7wTCHmgoBBdXC-oFBVKr-10" target="7wTCHmgoBBdXC-oFBVKr-15">
          <mxGeometry x="304.5" y="180" as="geometry">
            <mxPoint x="305" y="565" as="sourcePoint" />
            <mxPoint x="560" y="565" as="targetPoint" />
          </mxGeometry>
        </mxCell>
        <mxCell id="7wTCHmgoBBdXC-oFBVKr-15" value="" style="verticalLabelPosition=bottom;verticalAlign=top;html=1;strokeWidth=4;shape=mxgraph.flowchart.on-page_reference;strokeColor=#82b366;fillColor=#d5e8d4;" vertex="1" parent="1">
          <mxGeometry x="500" y="550" width="30" height="30" as="geometry" />
        </mxCell>
        <mxCell id="7wTCHmgoBBdXC-oFBVKr-28" value="" style="verticalLabelPosition=bottom;verticalAlign=top;html=1;strokeWidth=4;shape=mxgraph.flowchart.on-page_reference;strokeColor=#9673a6;fillColor=#e1d5e7;" vertex="1" parent="1">
          <mxGeometry x="460" y="340" width="30" height="30" as="geometry" />
        </mxCell>
        <mxCell id="7wTCHmgoBBdXC-oFBVKr-30" style="edgeStyle=orthogonalEdgeStyle;curved=1;rounded=0;html=1;exitX=1;exitY=0.5;exitPerimeter=0;entryX=0;entryY=0.5;entryPerimeter=0;endArrow=none;endFill=0;jettySize=auto;orthogonalLoop=1;strokeWidth=4;fontSize=15;exitDx=0;exitDy=0;entryDx=0;entryDy=0;" edge="1" parent="1" source="9hBKPDzoitwpIBdzFDQ7-30" target="7wTCHmgoBBdXC-oFBVKr-28">
          <mxGeometry relative="1" as="geometry">
            <mxPoint x="450" y="260" as="sourcePoint" />
            <mxPoint x="515" y="340" as="targetPoint" />
            <Array as="points">
              <mxPoint x="435" y="260" />
              <mxPoint x="435" y="355" />
            </Array>
          </mxGeometry>
        </mxCell>
        <mxCell id="7wTCHmgoBBdXC-oFBVKr-31" value="release" style="text;html=1;strokeColor=none;fillColor=none;align=center;verticalAlign=middle;whiteSpace=wrap;overflow=hidden;fontSize=14;fontStyle=1;fontFamily=Courier New;" vertex="1" parent="1">
          <mxGeometry x="80" y="345" width="70" height="20" as="geometry" />
        </mxCell>
        <mxCell id="7wTCHmgoBBdXC-oFBVKr-34" value="release-3" style="text;html=1;strokeColor=none;fillColor=none;align=center;verticalAlign=middle;whiteSpace=wrap;overflow=hidden;fontSize=14;" vertex="1" parent="1">
          <mxGeometry x="440" y="305" width="70" height="20" as="geometry" />
        </mxCell>
        <mxCell id="7wTCHmgoBBdXC-oFBVKr-35" value="main-4" style="text;html=1;strokeColor=none;fillColor=none;align=center;verticalAlign=middle;whiteSpace=wrap;overflow=hidden;fontSize=14;" vertex="1" parent="1">
          <mxGeometry x="490" y="120" width="70" height="20" as="geometry" />
        </mxCell>
        <mxCell id="7wTCHmgoBBdXC-oFBVKr-36" value="main-5" style="text;html=1;strokeColor=none;fillColor=none;align=center;verticalAlign=middle;whiteSpace=wrap;overflow=hidden;fontSize=14;" vertex="1" parent="1">
          <mxGeometry x="662" y="120" width="70" height="20" as="geometry" />
        </mxCell>
        <mxCell id="7wTCHmgoBBdXC-oFBVKr-37" style="edgeStyle=orthogonalEdgeStyle;curved=1;rounded=0;html=1;exitX=1;exitY=0.5;exitPerimeter=0;endArrow=none;endFill=0;jettySize=auto;orthogonalLoop=1;strokeWidth=4;fontSize=15;exitDx=0;exitDy=0;entryX=0;entryY=0.5;entryDx=0;entryDy=0;entryPerimeter=0;" edge="1" parent="1" source="7wTCHmgoBBdXC-oFBVKr-28" target="9hBKPDzoitwpIBdzFDQ7-26">
          <mxGeometry relative="1" as="geometry">
            <mxPoint x="550" y="267.5" as="sourcePoint" />
            <mxPoint x="700" y="250" as="targetPoint" />
            <Array as="points">
              <mxPoint x="530" y="355" />
              <mxPoint x="530" y="180" />
            </Array>
          </mxGeometry>
        </mxCell>
      </root>
    </mxGraphModel>
  </diagram>
</mxfile>
